<svg xmlns="http://www.w3.org/2000/svg" xmlns:xlink="http://www.w3.org/1999/xlink" version="1.1" x="0px" y="0px" viewBox="0 0 128 128" enable-background="new 0 0 128 128" xml:space="preserve"><g><g><path fill="#000000" d="M106.8,37.5c-0.4,0-0.9-0.1-1.2-0.4L89.8,24.8c-0.4-0.3-0.7-0.9-0.8-1.4s0.2-1.1,0.5-1.5l3.3-3.5    c0.7-0.8,1.3-1.7,1.7-2.7c0.2-0.6,0.7-1,1.3-1.2c0.6-0.2,1.3,0,1.8,0.4L113.3,27c0.5,0.4,0.8,1.1,0.8,1.8    c-0.1,0.7-0.5,1.3-1.1,1.6c-1.1,0.5-2,1.2-2.8,2.2c-0.7,1-1.2,2-1.4,3.2c-0.1,0.7-0.6,1.3-1.3,1.5C107.3,37.5,107,37.5,106.8,37.5    z M94,23l11.8,9.2c0.3-0.7,0.8-1.4,1.2-2c0.5-0.6,1-1.2,1.6-1.7l-11.6-9c-0.4,0.6-0.8,1.1-1.3,1.6L94,23z"></path></g><g><path fill="#000000" d="M98.5,127.5H19.9c-10.7,0-19.3-8.7-19.3-19.4c0-10.7,8.7-19.4,19.3-19.4h33.8c0.4,0,0.8,0.1,1.1,0.3    l37.7,25.8c1.4,0.9,2.9,1.4,4.6,1.4c2.7,0,5.2-1.3,6.7-3.6c2.5-3.7,1.6-8.8-2.1-11.4l-13.2-9c-0.7-0.5-1-1.4-0.8-2.2    c0.3-0.8,1-1.4,1.9-1.4h8.8c10.7,0,19.3,8.7,19.3,19.4C117.9,118.8,109.2,127.5,98.5,127.5z M19.9,92.7c-8.5,0-15.3,6.9-15.3,15.4    s6.9,15.4,15.3,15.4h78.7c8.5,0,15.3-6.9,15.3-15.4S107,92.7,98.5,92.7h-2.4L104,98c5.5,3.8,7,11.4,3.2,16.9    c-2.3,3.3-6,5.3-10,5.3c-2.4,0-4.8-0.7-6.8-2.1L53.1,92.7H19.9z"></path></g><g><path fill="#000000" d="M97.1,120.2c-2.4,0-4.8-0.7-6.8-2.1l-61-41.7c-2.5-1.7-4.3-4.3-5-7.4c-0.2-1.1,0.4-2.1,1.5-2.4    c1.1-0.2,2.1,0.4,2.4,1.5c0.4,1.5,1.2,2.9,2.3,4c1.5,1.5,3.5,2.3,5.6,2.3c2.2,0,4.3-0.9,5.9-2.5l8.2-8.6c0.7-0.7,1.8-0.8,2.6-0.3    L104,98c5.5,3.8,7,11.4,3.2,16.9C104.9,118.2,101.1,120.2,97.1,120.2z M38.9,78.2l53.6,36.7c1.4,0.9,2.9,1.4,4.6,1.4    c2.7,0,5.2-1.3,6.7-3.6c2.5-3.7,1.6-8.8-2.1-11.4l-49.7-34l-7,7.4C43.3,76.5,41.2,77.6,38.9,78.2z"></path></g><g><path fill="#000000" d="M36.2,78.5C36.2,78.5,36.2,78.5,36.2,78.5c-3.1,0-6.1-1.2-8.4-3.4c-1.7-1.6-2.9-3.7-3.4-6    c0-0.2-0.1-0.2-0.1-0.3c0-0.1,0-0.2-0.1-0.3l0-0.1c-0.1-0.4-0.1-0.8-0.1-1.2c-0.3-3.4,0.9-6.8,3.3-9.3L78.2,4.3    c2.3-2.4,5.4-3.8,8.8-3.8c3.1,0,6.1,1.2,8.4,3.4c3.6,3.4,4.7,8.6,2.9,13.3c-0.6,1.5-1.4,2.8-2.5,4L44.9,74.7    C42.6,77.1,39.5,78.5,36.2,78.5z M87,4.5c-2.2,0-4.3,0.9-5.9,2.5L30.3,60.7c-1.6,1.7-2.4,3.9-2.2,6.3c0,0.3,0,0.5,0.1,0.8l0,0.3    c0,0,0,0.2,0.1,0.2c0.4,1.5,1.2,2.9,2.3,4c1.5,1.5,3.5,2.3,5.6,2.3l0,0c2.2,0,4.3-0.9,5.9-2.5l50.9-53.6c0.7-0.8,1.3-1.7,1.7-2.7    c1.2-3.1,0.4-6.6-2-8.9C91.1,5.3,89.1,4.5,87,4.5z"></path></g><g><path fill="#000000" d="M116.1,76.9L116.1,76.9c-1,0-1.8-0.7-2-1.7l-4.3-29.2c-0.1-0.7,0.2-1.5,0.8-1.9c0.6-0.4,1.4-0.5,2.1-0.1    c2.1,1.1,4.7,1.1,6.8,0c0.7-0.3,1.5-0.3,2.1,0.1c0.6,0.4,0.9,1.2,0.8,1.9L118,75.1C117.9,76.1,117.1,76.9,116.1,76.9z M114.2,48.5    l1.9,12.7l1.9-12.7C116.7,48.7,115.4,48.7,114.2,48.5z"></path></g><g><path fill="#000000" d="M116.1,48.7L116.1,48.7c-1.8,0-3.6-0.4-5.3-1.3c-0.6-0.3-1.2-0.7-1.8-1.1c-3.4-2.6-5-6.9-4.2-11.1    c0.3-1.8,1.1-3.5,2.2-5c1.1-1.5,2.6-2.6,4.2-3.4c1.5-0.7,3.2-1.1,4.8-1.1c2.6,0,5,0.8,7,2.4c5,3.9,5.9,11.1,2,16.1    c-1,1.3-2.3,2.4-3.8,3.1C119.7,48.2,117.9,48.7,116.1,48.7z M116.1,29.7c-1.1,0-2.2,0.2-3.1,0.7c-1.1,0.5-2,1.2-2.8,2.2    c-0.7,1-1.2,2-1.4,3.2c-0.5,2.8,0.5,5.5,2.8,7.3c0.3,0.3,0.7,0.5,1.1,0.7c1,0.5,2.2,0.8,3.4,0.8l0,0c1.2,0,2.4-0.3,3.4-0.8    c1-0.5,1.8-1.2,2.4-2c2.5-3.3,1.9-8-1.3-10.5C119.3,30.3,117.7,29.7,116.1,29.7z"></path></g><g><path fill="#000000" d="M116.1,41.7c-0.7,0-1.4-0.2-2-0.5c-0.3-0.1-0.5-0.3-0.7-0.4c-1.3-1-1.9-2.7-1.6-4.4    c0.1-0.7,0.4-1.4,0.9-1.9c0.4-0.6,1-1,1.6-1.3c0.6-0.3,1.2-0.4,1.9-0.4c0.7,0,1.7,0.2,2.7,0.9c1.9,1.5,2.3,4.3,0.8,6.3    c-0.4,0.5-0.9,0.9-1.5,1.2C117.5,41.5,116.8,41.7,116.1,41.7z M116.1,34.7c-0.4,0-0.7,0.1-1,0.2c-0.4,0.2-0.7,0.4-0.9,0.7    c-0.2,0.3-0.4,0.7-0.5,1.1c-0.2,0.9,0.2,1.9,0.9,2.4c0.1,0.1,0.2,0.2,0.4,0.2c0.7,0.4,1.5,0.4,2.2,0c0.3-0.2,0.6-0.4,0.8-0.7    c0.8-1.1,0.6-2.6-0.4-3.5C117,34.8,116.5,34.7,116.1,34.7z"></path></g><g><path fill="#000000" d="M85.9,19.7c-3.4,0-6.1-2.7-6.1-6.1s2.7-6.1,6.1-6.1s6.1,2.7,6.1,6.1S89.3,19.7,85.9,19.7z M85.9,9.5    c-2.3,0-4.1,1.8-4.1,4.1s1.8,4.1,4.1,4.1c2.3,0,4.1-1.8,4.1-4.1S88.2,9.5,85.9,9.5z"></path></g><g><path fill="#000000" d="M36.1,72.2c-3.4,0-6.1-2.7-6.1-6.1s2.7-6.1,6.1-6.1s6.1,2.7,6.1,6.1S39.5,72.2,36.1,72.2z M36.1,62    c-2.3,0-4.1,1.8-4.1,4.1c0,2.3,1.8,4.1,4.1,4.1s4.1-1.8,4.1-4.1C40.2,63.9,38.4,62,36.1,62z"></path></g><g><path fill="#000000" d="M97.1,114.2c-3.4,0-6.1-2.7-6.1-6.1s2.7-6.1,6.1-6.1s6.1,2.7,6.1,6.1S100.5,114.2,97.1,114.2z M97.1,104    c-2.3,0-4.1,1.8-4.1,4.1c0,2.3,1.8,4.1,4.1,4.1s4.1-1.8,4.1-4.1C101.2,105.8,99.4,104,97.1,104z"></path></g></g></svg>